<svg width="24" height="24" viewBox="0 0 24 24" fill="none" xmlns="http://www.w3.org/2000/svg">
<path d="M23 15.97C23 19.84 19.87 22.97 16 22.97L17.05 21.22" stroke="#F1F1F1" stroke-width="1.5" stroke-linecap="round" stroke-linejoin="round"/>
<path d="M1 7.96997C1 4.09997 4.13 0.969971 8 0.969971L6.95 2.71997" stroke="#F1F1F1" stroke-width="1.5" stroke-linecap="round" stroke-linejoin="round"/>
<path d="M6.62012 13.0699H9.43012C10.0501 13.0699 10.5601 13.63 10.5601 14.2C10.5601 14.82 10.0601 15.33 9.43012 15.33H6.62012V13.0699Z" stroke="#F1F1F1" stroke-width="1.5" stroke-miterlimit="10" stroke-linecap="round" stroke-linejoin="round"/>
<path d="M6.62012 15.33H9.84012C10.5501 15.33 11.1301 15.83 11.1301 16.46C11.1301 17.08 10.5501 17.59 9.84012 17.59H6.62012V15.33Z" stroke="#F1F1F1" stroke-width="1.5" stroke-miterlimit="10" stroke-linecap="round" stroke-linejoin="round"/>
<path d="M8.42017 17.58V18.7" stroke="#F1F1F1" stroke-width="1.5" stroke-miterlimit="10" stroke-linecap="round" stroke-linejoin="round"/>
<path d="M8.42017 11.95V13.0699" stroke="#F1F1F1" stroke-width="1.5" stroke-miterlimit="10" stroke-linecap="round" stroke-linejoin="round"/>
<path d="M14.85 15.33C14.85 18.74 12.09 21.4999 8.68001 21.4999C5.27001 21.4999 2.51001 18.74 2.51001 15.33C2.51001 11.92 5.27001 9.15991 8.68001 9.15991C8.84001 9.15991 8.99001 9.16993 9.16001 9.17993C12.19 9.40993 14.61 11.8299 14.84 14.8599C14.84 15.0099 14.85 15.16 14.85 15.33Z" stroke="#F1F1F1" stroke-width="1.5" stroke-miterlimit="10" stroke-linecap="round" stroke-linejoin="round"/>
<path d="M21.4999 8.66998C21.4999 12.08 18.7399 14.84 15.3299 14.84H14.8399C14.6099 11.81 12.1899 9.38997 9.15991 9.15997V8.66998C9.15991 5.25998 11.9199 2.5 15.3299 2.5C18.7399 2.5 21.4999 5.25998 21.4999 8.66998Z" stroke="#F1F1F1" stroke-width="1.5" stroke-miterlimit="10" stroke-linecap="round" stroke-linejoin="round"/>
</svg>
