<svg width="60" height="53" viewBox="0 0 60 53" fill="none" xmlns="http://www.w3.org/2000/svg">
<path d="M53.6108 29.0151C53.4909 29.2874 53.2839 29.5206 53.0166 29.6846C52.7493 29.8485 52.4341 29.9356 52.1118 29.9346H47.2237V41.799C47.2223 42.1919 47.0502 42.5684 46.7449 42.8462C46.4397 43.1241 46.026 43.2808 45.5943 43.282H37.4475V32.9007C37.4475 31.3274 36.7608 29.8185 35.5386 28.706C34.3163 27.5935 32.6586 26.9685 30.93 26.9685C29.2015 26.9685 27.5438 27.5935 26.3215 28.706C25.0992 29.8185 24.4126 31.3274 24.4126 32.9007V43.282H16.2658C15.8341 43.2808 15.4204 43.1241 15.1152 42.8462C14.8099 42.5684 14.6378 42.1919 14.6364 41.799V29.9346H9.74831C9.42601 29.9356 9.11079 29.8485 8.84351 29.6846C8.57624 29.5206 8.36922 29.2874 8.2493 29.0151C8.12482 28.745 8.0909 28.4474 8.15178 28.1597C8.21266 27.8721 8.36564 27.6073 8.59146 27.3986L29.7732 8.11895C30.0808 7.84102 30.4966 7.68506 30.93 7.68506C31.3635 7.68506 31.7793 7.84102 32.0869 8.11895L53.2686 27.3986C53.4944 27.6073 53.6474 27.8721 53.7083 28.1597C53.7692 28.4474 53.7353 28.745 53.6108 29.0151Z" fill="#9DA3E9"/>
</svg>
