<svg width="60" height="53" viewBox="0 0 60 53" fill="none" xmlns="http://www.w3.org/2000/svg">
<path fill-rule="evenodd" clip-rule="evenodd" d="M30.5656 24.5972C29.287 24.5972 28.2216 25.5319 28.2216 26.6536C28.2216 27.7752 29.287 28.71 30.5656 28.71C31.8442 28.71 32.9097 27.7752 32.9097 26.6536C32.9097 25.5319 31.8442 24.5972 30.5656 24.5972ZM30.5656 7.95898C18.8453 7.95898 9.25586 16.3715 9.25586 26.6536C9.25586 36.9356 18.8453 45.3481 30.5656 45.3481C42.286 45.3481 51.8754 36.9356 51.8754 26.6536C51.8754 16.3715 42.286 7.95898 30.5656 7.95898ZM35.2538 30.7664L17.7798 37.8703L25.8775 22.5408L43.3515 15.4368L35.2538 30.7664Z" fill="#F8AEC3"/>
</svg>
