<svg width="52" height="50" viewBox="0 0 52 50" fill="none" xmlns="http://www.w3.org/2000/svg">
<path d="M43.1446 25H34.5415C32.1757 25 30.24 26.875 30.24 29.1667V41.6667C30.24 43.9583 32.1757 45.8333 34.5415 45.8333H43.1446C45.5105 45.8333 47.4462 43.9583 47.4462 41.6667V29.1667C47.4462 26.875 45.5105 25 43.1446 25Z" fill="#FACFCA"/>
<path d="M17.3353 4.16663H8.73221C6.36636 4.16663 4.43066 6.04163 4.43066 8.33329V20.8333C4.43066 23.125 6.36636 25 8.73221 25H17.3353C19.7012 25 21.6368 23.125 21.6368 20.8333V8.33329C21.6368 6.04163 19.7012 4.16663 17.3353 4.16663Z" fill="#FACFCA"/>
<path d="M43.1446 4.16663H34.5415C32.1757 4.16663 30.24 6.04163 30.24 8.33329V12.5C30.24 14.7916 32.1757 16.6666 34.5415 16.6666H43.1446C45.5105 16.6666 47.4462 14.7916 47.4462 12.5V8.33329C47.4462 6.04163 45.5105 4.16663 43.1446 4.16663Z" fill="#FACFCA"/>
<path d="M17.3353 33.3334H8.73221C6.36636 33.3334 4.43066 35.2084 4.43066 37.5V41.6667C4.43066 43.9584 6.36636 45.8334 8.73221 45.8334H17.3353C19.7012 45.8334 21.6368 43.9584 21.6368 41.6667V37.5C21.6368 35.2084 19.7012 33.3334 17.3353 33.3334Z" fill="#FACFCA"/>
</svg>
