<svg width="33" height="32" viewBox="0 0 33 32">
	<g clip-path="url(#clip0_988_167)">
		<path
			d="M5.14362 15.6861C5.14362 16.0665 5.45195 16.3748 5.83185 16.3743L25.7466 16.3743L22.023 20.0979C21.7524 20.3685 21.7524 20.8077 22.023 21.0783C22.2936 21.3489 22.7328 21.3489 23.0034 21.0783L27.9054 16.1763C28.0353 16.0464 28.1103 15.8704 28.1103 15.6861C28.1103 15.5018 28.0353 15.3258 27.9054 15.1959L23.0034 10.294C22.7328 10.0234 22.2936 10.0234 22.023 10.294C21.7524 10.5645 21.7524 11.0038 22.023 11.2743L25.7466 14.9979L5.83185 14.9979C5.45146 14.9979 5.14313 15.3062 5.14362 15.6861Z"
			fill="#3751FF" />
	</g>
	<defs>
		<clipPath id="clip0_988_167">
			<rect width="22.1838" height="22.1838" fill="white" transform="translate(16.627) rotate(45)" />
		</clipPath>
	</defs>
</svg>