<svg width="60" height="53" viewBox="0 0 60 53" fill="none" xmlns="http://www.w3.org/2000/svg">
	<g clip-path="url(#clip0_98_502)">
		<path
			d="M24.8156 26.0239C24.8156 26.0613 24.8128 26.0985 24.8086 26.1355L36.0901 31.2648C36.5902 30.9077 37.1512 30.6165 37.7585 30.4107C38.4086 30.1904 39.1081 30.0685 39.8389 30.0685C41.5298 30.0685 43.0605 30.6916 44.1684 31.6991C45.2763 32.7066 45.9614 34.0985 45.9614 35.6361C45.9614 37.1736 45.2763 38.5655 44.1686 39.5732C43.0598 40.5818 41.529 41.2055 39.839 41.2055C38.1482 41.2055 36.6182 40.5821 35.5101 39.5739C34.4026 38.5661 33.7181 37.174 33.7181 35.6361C33.7181 35.5977 33.7209 35.5601 33.7251 35.523L22.443 30.395C21.9414 30.751 21.3797 31.0418 20.7714 31.2473C20.1224 31.4666 19.4246 31.5883 18.6948 31.5883C17.0048 31.5883 15.4745 30.9656 14.3666 29.9587C13.2579 28.9511 12.5723 27.56 12.5723 26.0239C12.5723 24.4863 13.2574 23.0944 14.3651 22.0868C15.4739 21.0781 17.0047 20.4545 18.6948 20.4545C19.4245 20.4545 20.1224 20.5765 20.7713 20.7961C21.3781 21.0014 21.9398 21.2928 22.4421 21.6499L33.7252 16.5214C33.721 16.4835 33.7181 16.4453 33.7181 16.4066C33.7181 14.871 34.4034 13.4794 35.5121 12.4715C36.6193 11.465 38.1486 10.8423 39.8389 10.8423C41.5287 10.8423 43.0587 11.4652 44.1666 12.4721C45.2755 13.4799 45.9614 14.8713 45.9614 16.4066C45.9614 17.9443 45.2764 19.3361 44.1686 20.3438C43.0599 21.3524 41.5291 21.976 39.8389 21.976C39.1068 21.976 38.4075 21.8538 37.7582 21.6336C37.1503 21.4273 36.5895 21.1356 36.0899 20.7781L24.8085 25.9094C24.8127 25.9472 24.8156 25.9853 24.8156 26.0239L24.8156 26.0239Z"
			fill="#74D5DE" />
	</g>
</svg>