<svg width="33" height="32" viewBox="0 0 33 32" fill="none" xmlns="http://www.w3.org/2000/svg">
<g clip-path="url(#clip0_988_161)">
<path d="M28.1113 15.6861C28.1113 16.0665 27.8029 16.3748 27.423 16.3743L7.50832 16.3743L11.2318 20.0979C11.5024 20.3685 11.5024 20.8077 11.2318 21.0783C10.9613 21.3489 10.522 21.3489 10.2515 21.0783L5.34949 16.1763C5.21959 16.0464 5.14459 15.8704 5.14459 15.6861C5.14459 15.5018 5.21959 15.3258 5.34949 15.1959L10.2515 10.294C10.522 10.0234 10.9613 10.0234 11.2318 10.294C11.5024 10.5645 11.5024 11.0038 11.2318 11.2743L7.50832 14.9979L27.423 14.9979C27.8034 14.9979 28.1118 15.3062 28.1113 15.6861Z" fill="#3751FF"/>
</g>
<defs>
<clipPath id="clip0_988_161">
<rect width="22.1838" height="22.1838" fill="white" transform="matrix(-0.707107 0.707107 0.707107 0.707107 16.6279 0)"/>
</clipPath>
</defs>
</svg>
