<svg width="50" height="50" viewBox="0 0 50 50" fill="none" xmlns="http://www.w3.org/2000/svg">
<path d="M22.093 0C9.02383 0 0 11.0721 0 22.093C0 28.7415 2.90945 34.3897 7.07973 38.3108C11.0269 42.0221 16.7843 44.186 20.9302 44.186C21.303 44.186 21.5116 43.883 21.5116 43.6046C21.5116 43.3542 21.4293 43.1114 21.0574 43.0233C18.6047 42.4419 16.3258 40.0891 14.6439 36.3372C14.1162 35.16 13.6707 33.8506 13.2813 32.4491C14.939 32.7867 16.7034 33.0155 18.5683 33.1395C18.8727 33.1586 19.167 32.8989 19.186 32.5945C19.2051 32.2901 18.9454 31.9958 18.641 31.9767C16.6075 31.8415 14.699 31.5675 12.936 31.1773C12.3264 28.5879 11.978 25.7045 11.9368 22.6744H21.5116V25C21.5073 25.3072 21.7858 25.5897 22.093 25.5897C22.4002 25.5897 22.6788 25.3072 22.6744 25V22.6744H25C25.3072 22.6788 25.5897 22.4002 25.5897 22.093C25.5897 21.7858 25.3072 21.5073 25 21.5116H22.6744V11.9368C25.6757 11.9769 28.5174 12.3256 31.0865 12.9179C31.5035 14.7018 31.8137 16.6121 31.9767 18.641C32.0005 18.9454 32.2991 19.2007 32.6036 19.177C32.908 19.1532 33.1633 18.8546 33.1395 18.5501C32.9899 16.6889 32.7213 14.9196 32.3583 13.2449C33.799 13.6374 35.1503 14.0862 36.3554 14.6257C38.9535 15.6977 42.4419 18.0233 43.0233 20.9302C43.0233 21.2513 43.2836 21.5116 43.6047 21.5116C43.9258 21.5116 44.1861 21.2513 44.1861 20.9302C43.6047 10.4651 34.8413 0 22.093 0ZM21.5116 1.2173V10.774C18.5944 10.8118 15.8145 11.1268 13.2813 11.6824C13.7535 10.0114 14.3394 8.47595 15.0073 7.14026C16.7604 3.63408 19.0718 1.51507 21.5116 1.2173ZM22.6744 1.2173C24.8532 1.47437 26.8833 3.16115 28.5247 6.03198C29.4222 7.60166 30.1692 9.52048 30.7594 11.6642C28.2573 11.1289 25.5357 10.8112 22.6744 10.774V1.2173ZM26.3445 1.59884C34.4357 3.26377 40.8227 9.58606 42.569 17.6417C41.2569 16.0477 39.2712 14.6658 36.8278 13.5719C35.3861 12.9265 33.7809 12.393 32.0494 11.9549C31.416 9.48551 30.5661 7.2733 29.524 5.45058C28.609 3.85033 27.5372 2.53983 26.3445 1.59884ZM17.8052 1.61701C16.3327 2.77557 15.0314 4.49384 13.9717 6.61337C13.1819 8.19284 12.5282 10.011 12.0094 11.9913C10.0212 12.5073 8.19824 13.1611 6.61337 13.9535C4.50145 15.0095 2.7755 16.3163 1.61701 17.7871C3.31202 9.67757 9.69326 3.30531 17.8052 1.61701ZM21.5116 11.9368V21.5116H11.9368C11.9787 18.4538 12.3343 15.566 12.9542 12.9724C15.5527 12.3497 18.4462 11.9788 21.5116 11.9368ZM11.6824 13.2994C11.1231 15.8303 10.8126 18.5975 10.774 21.5116H1.19913C1.49669 19.0716 3.63386 16.7605 7.14026 15.0073C8.47676 14.339 10.0102 13.7719 11.6824 13.2994ZM1.19913 22.6744H10.774C10.8117 25.5748 11.1318 28.3376 11.6824 30.8685C9.46914 30.2843 7.52464 29.5142 5.94113 28.5974C3.09722 26.9508 1.44006 24.9141 1.19913 22.6744ZM34.8837 25.5814C29.7531 25.5814 25.5814 29.7531 25.5814 34.8837C25.5814 40.0144 29.7531 44.186 34.8837 44.186C37.2401 44.186 39.4023 43.3091 41.0429 41.8605L49.0007 49.8183C49.1096 49.9283 49.2667 49.9997 49.4186 50C49.5661 50.0002 49.7177 49.9299 49.825 49.8249C49.9337 49.7186 49.9975 49.5661 50 49.4186C50.0025 49.269 49.9428 49.1106 49.8365 49.0007L41.8605 41.0247C43.3038 39.3854 44.1861 37.2353 44.1861 34.8837C44.1861 29.7531 40.0144 25.5814 34.8837 25.5814ZM1.63517 26.4898C2.55268 27.6562 3.81633 28.7031 5.35974 29.5967C7.19422 30.6588 9.43563 31.5187 11.9731 32.1403C12.4065 33.8278 12.9397 35.3991 13.5719 36.8096C14.6672 39.2527 16.0472 41.2522 17.6417 42.569C9.6321 40.8368 3.3451 34.5142 1.63517 26.4898ZM34.8837 26.7442C39.386 26.7442 43.0233 30.3815 43.0233 34.8837C43.0233 39.3859 39.386 43.0233 34.8837 43.0233C30.3815 43.0233 26.7442 39.3859 26.7442 34.8837C26.7442 30.3815 30.3815 26.7442 34.8837 26.7442Z" fill="url(#paint0_linear_115_35)"/>
<defs>
<linearGradient id="paint0_linear_115_35" x1="25" y1="0" x2="25" y2="50" gradientUnits="userSpaceOnUse">
<stop stop-color="#91DC17"/>
<stop offset="1" stop-color="#0DE3B2"/>
</linearGradient>
</defs>
</svg>
