<svg width="42" height="50" viewBox="0 0 42 50" fill="none" xmlns="http://www.w3.org/2000/svg">
<path d="M4.65116 0C2.08448 0 0 2.08448 0 4.65116V45.3488C0 47.9155 2.08448 50 4.65116 50H25.5814C28.1481 50 30.2326 47.9155 30.2326 45.3488V28.4884H38.9535C40.5539 28.4884 41.8605 27.1818 41.8605 25.5814V15.1163C41.8605 13.5159 40.5539 12.2093 38.9535 12.2093H30.2326V4.65116C30.2326 2.08448 28.1481 0 25.5814 0H4.65116ZM4.65116 1.16279H25.5814C27.524 1.16279 29.0698 2.70855 29.0698 4.65116V5.81395H1.16279V4.65116C1.16279 2.70855 2.70855 1.16279 4.65116 1.16279ZM1.16279 6.97674H29.0698V12.2093H16.8605C15.2601 12.2093 13.9535 13.5159 13.9535 15.1163V25.5814C13.9535 27.1818 15.2601 28.4884 16.8605 28.4884H18.0233V33.7209C18.0199 34.15 18.6045 34.448 18.9499 34.1933L26.944 28.4884H29.0698V39.5349H1.16279V6.97674ZM16.8605 13.3721H38.9535C39.9298 13.3721 40.6977 14.1399 40.6977 15.1163V25.5814C40.6977 26.5577 39.9298 27.3256 38.9535 27.3256H26.7442C26.6215 27.3242 26.4987 27.3631 26.399 27.4346L19.186 32.5945V27.907C19.186 27.6026 18.9091 27.3256 18.6047 27.3256H16.8605C15.8841 27.3256 15.1163 26.5577 15.1163 25.5814V15.1163C15.1163 14.1399 15.8841 13.3721 16.8605 13.3721ZM20.9302 18.6047C19.9669 18.6047 19.186 19.3856 19.186 20.3488C19.186 21.3121 19.9669 22.093 20.9302 22.093C21.8935 22.093 22.6744 21.3121 22.6744 20.3488C22.6744 19.3856 21.8935 18.6047 20.9302 18.6047ZM27.907 18.6047C26.9437 18.6047 26.1628 19.3855 26.1628 20.3488C26.1628 21.3121 26.9437 22.093 27.907 22.093C28.8703 22.093 29.6512 21.3121 29.6512 20.3488C29.6512 19.3855 28.8703 18.6047 27.907 18.6047ZM34.8837 18.6047C33.9204 18.6047 33.1395 19.3856 33.1395 20.3488C33.1395 21.3121 33.9204 22.093 34.8837 22.093C35.847 22.093 36.6279 21.3121 36.6279 20.3488C36.6279 19.3856 35.847 18.6047 34.8837 18.6047ZM1.16279 40.6977H29.0698V45.3488C29.0698 47.2915 27.524 48.8372 25.5814 48.8372H4.65116C2.70855 48.8372 1.16279 47.2915 1.16279 45.3488V40.6977ZM15.1163 43.0233C14.153 43.0233 13.3721 43.8042 13.3721 44.7674C13.3721 45.7307 14.153 46.5116 15.1163 46.5116C16.0796 46.5116 16.8605 45.7307 16.8605 44.7674C16.8605 43.8042 16.0796 43.0233 15.1163 43.0233Z" fill="url(#paint0_linear_115_25)"/>
<defs>
<linearGradient id="paint0_linear_115_25" x1="20.9302" y1="0" x2="20.9302" y2="50" gradientUnits="userSpaceOnUse">
<stop stop-color="#10A9EB"/>
<stop offset="1" stop-color="#1E6FF2"/>
</linearGradient>
</defs>
</svg>
