<svg width="56" height="50" viewBox="0 0 56 50" fill="none" xmlns="http://www.w3.org/2000/svg">
<path d="M14.363 0.46076L13.2813 4.22678C12.4486 4.48487 11.652 4.80573 10.8975 5.20835L7.47197 3.30531C7.22858 3.17605 6.90248 3.22754 6.71076 3.4255L3.4255 6.71076C3.23393 6.9072 3.19111 7.23266 3.32534 7.47197L5.20835 10.8774C4.80291 11.6381 4.4652 12.4413 4.20675 13.2813L0.46076 14.343C0.195259 14.4208 -0.00247425 14.6873 2.34422e-05 14.964V19.6314C-0.00247656 19.9081 0.195259 20.1746 0.46076 20.2524L4.20675 21.3141C4.46597 22.1566 4.82134 22.9553 5.22839 23.718L3.32534 27.1234C3.18145 27.3668 3.22487 27.7055 3.4255 27.9047L6.71076 31.1899C6.9072 31.3815 7.23266 31.4243 7.47197 31.2901L10.8975 29.387C11.6525 29.79 12.448 30.1304 13.2813 30.3886L14.363 34.1346C14.4335 34.4074 14.7022 34.6155 14.984 34.6154H19.6314C19.9132 34.6155 20.182 34.4074 20.2524 34.1346L21.3341 30.3886C22.1674 30.1304 22.9629 29.79 23.718 29.387L27.1434 31.2901C27.3828 31.4243 27.7082 31.3815 27.9047 31.1899L31.1899 27.9047C31.3905 27.7055 31.434 27.3668 31.2901 27.1234L29.387 23.718C29.7941 22.9553 30.1494 22.1566 30.4087 21.3141L34.1547 20.2524C34.4202 20.1746 34.6179 19.9081 34.6154 19.6314V14.964C34.6179 14.6873 34.4202 14.4208 34.1547 14.343L30.4087 13.2813C30.1502 12.4413 29.8125 11.6381 29.4071 10.8774L31.2901 7.47197C31.4243 7.23266 31.3815 6.9072 31.1899 6.71076L27.9047 3.4255C27.7129 3.22754 27.3868 3.17605 27.1434 3.30531L23.718 5.20835C22.9635 4.80573 22.1668 4.48487 21.3341 4.22678L20.2524 0.46076C20.1746 0.195259 19.9081 -0.00247404 19.6314 2.33947e-05H14.984C14.6451 2.33947e-05 14.425 0.245021 14.363 0.46076ZM15.4447 1.28207H19.1707L20.1723 4.84778C20.2318 5.05641 20.4044 5.22899 20.613 5.28848C21.6117 5.56362 22.5727 5.96693 23.4575 6.47037C23.6466 6.57503 23.8895 6.57503 24.0785 6.47037L27.3438 4.66749L29.9479 7.27165L28.125 10.5369C28.0204 10.7259 28.0204 10.9688 28.125 11.1579C28.6285 12.0427 29.0318 12.9836 29.3069 13.9824C29.3664 14.191 29.539 14.3636 29.7476 14.4231L33.3333 15.4447V19.1507L29.7476 20.1723C29.539 20.2318 29.3664 20.4044 29.3069 20.613C29.0318 21.6117 28.6285 22.5527 28.125 23.4375C28.0131 23.6313 28.0131 23.8848 28.125 24.0785L29.9279 27.3438L27.3438 29.9279L24.0785 28.125C23.8895 28.0204 23.6466 28.0204 23.4575 28.125C22.5727 28.6285 21.6117 29.0317 20.613 29.3069C20.4044 29.3664 20.2318 29.539 20.1723 29.7476L19.1507 33.3333H15.4648L14.4431 29.7476C14.3836 29.539 14.2111 29.3664 14.0024 29.3069C13.0037 29.0317 12.0427 28.6285 11.1579 28.125C10.9688 28.0204 10.7259 28.0204 10.5369 28.125L7.27165 29.9279L4.68752 27.3438L6.4904 24.0785C6.60227 23.8848 6.60227 23.6313 6.4904 23.4375C5.98696 22.5527 5.58366 21.6117 5.30851 20.613C5.24902 20.4044 5.07644 20.2318 4.86781 20.1723L1.28207 19.1507V15.4447L4.86781 14.4231C5.07644 14.3636 5.24902 14.191 5.30851 13.9824C5.58366 12.9836 5.98696 12.0427 6.4904 11.1579C6.59506 10.9688 6.59506 10.7259 6.4904 10.5369L4.66749 7.27165L7.27165 4.66749L10.5369 6.47037C10.7259 6.57503 10.9688 6.57503 11.1579 6.47037C12.0427 5.96693 13.0037 5.56362 14.0024 5.28848C14.2111 5.22899 14.3836 5.05641 14.4431 4.84778L15.4447 1.28207ZM17.3077 9.6154C13.067 9.6154 9.6154 13.067 9.6154 17.3077C9.6154 21.5485 13.067 25 17.3077 25C21.5485 25 25 21.5485 25 17.3077C25 13.067 21.5485 9.6154 17.3077 9.6154ZM17.3077 10.8975C20.8556 10.8975 23.718 13.7598 23.718 17.3077C23.718 20.8556 20.8556 23.718 17.3077 23.718C13.7598 23.718 10.8975 20.8556 10.8975 17.3077C10.8975 13.7598 13.7598 10.8975 17.3077 10.8975ZM41.2059 25.641C40.9781 25.6915 40.7853 25.8763 40.7252 26.1018L40.004 28.5857C39.4848 28.7525 38.997 28.9799 38.5216 29.2268L36.238 27.9447C35.9946 27.8155 35.6685 27.8669 35.4768 28.0649L33.1931 30.3285C32.9925 30.5277 32.9491 30.8664 33.093 31.1098L34.355 33.3734C34.1126 33.8407 33.9191 34.346 33.754 34.8558L31.23 35.5769C30.9645 35.6548 30.7667 35.9213 30.7692 36.1979V39.4231C30.7667 39.6997 30.9645 39.9663 31.23 40.0441L33.734 40.7652C33.8999 41.2819 34.1097 41.7743 34.355 42.2476L33.093 44.5312C32.9587 44.7706 33.0015 45.096 33.1931 45.2925L35.4768 47.5561C35.6685 47.7541 35.9946 47.8055 36.238 47.6763L38.5216 46.3942C38.997 46.641 39.4848 46.8685 40.004 47.0353L40.7252 49.5192C40.7938 49.7857 41.0511 49.9915 41.3261 50H44.5713C44.8463 49.9915 45.1036 49.7857 45.1723 49.5192L45.8934 47.0353C46.4126 46.8685 46.9004 46.641 47.3758 46.3942L49.6595 47.6763C49.9028 47.8055 50.2289 47.7541 50.4207 47.5561L52.7043 45.2925C52.8959 45.096 52.9387 44.7706 52.8045 44.5312L51.5425 42.2476C51.7877 41.7743 51.9975 41.2819 52.1635 40.7652L54.6675 40.0441C54.933 39.9663 55.1307 39.6997 55.1282 39.4231V36.1979C55.1307 35.9213 54.933 35.6548 54.6675 35.5769L52.1434 34.8558C51.9783 34.346 51.7848 33.8407 51.5425 33.3734L52.8045 31.1098C52.9484 30.8664 52.905 30.5277 52.7043 30.3285L50.4207 28.0649C50.2289 27.8669 49.9028 27.8155 49.6595 27.9447L47.3758 29.2268C46.9004 28.9799 46.4127 28.7525 45.8934 28.5857L45.1723 26.1018C45.0964 25.8426 44.8413 25.6471 44.5713 25.641H41.3261C41.2862 25.6373 41.2459 25.6373 41.2059 25.641ZM41.8069 26.9231H44.0905L44.7516 29.2468C44.8111 29.4554 44.9837 29.628 45.1923 29.6875C45.8672 29.8734 46.4962 30.1478 47.0954 30.4888C47.2891 30.6007 47.5426 30.6007 47.7364 30.4888L49.8598 29.3069L51.4423 30.8894L50.2604 33.0329C50.1618 33.2253 50.1696 33.4682 50.2804 33.6539C50.6214 34.253 50.8758 34.902 51.0617 35.5769C51.1247 35.7902 51.3065 35.9642 51.5224 36.0176L53.8461 36.6787V38.9423L51.5224 39.6034C51.3018 39.6602 51.1186 39.8435 51.0617 40.0641C50.8758 40.739 50.6213 41.3681 50.2804 41.9672C50.1696 42.1528 50.1618 42.3957 50.2604 42.5881L51.4623 44.7316L49.8598 46.3141L47.7364 45.1322C47.5426 45.0203 47.2891 45.0203 47.0954 45.1322C46.4962 45.4732 45.8672 45.7475 45.1923 45.9335C44.9837 45.993 44.8111 46.1656 44.7516 46.3742L44.0905 48.7179H41.8069L41.1458 46.3742C41.0863 46.1656 40.9138 45.993 40.7051 45.9335C40.0302 45.7475 39.4012 45.4732 38.8021 45.1322C38.6083 45.0203 38.3548 45.0203 38.1611 45.1322L36.0377 46.3141L34.4351 44.7316L35.637 42.5881C35.7356 42.3957 35.7278 42.1528 35.617 41.9672C35.2761 41.3681 35.0217 40.739 34.8357 40.0641C34.7789 39.8435 34.5956 39.6602 34.375 39.6034L32.0513 38.9423V36.6787L34.375 36.0176C34.5909 35.9642 34.7727 35.7902 34.8357 35.5769C35.0217 34.902 35.2761 34.253 35.617 33.6539C35.7278 33.4682 35.7356 33.2253 35.637 33.0329L34.4551 30.8894L36.0377 29.3069L38.1611 30.4888C38.3548 30.6007 38.6083 30.6007 38.8021 30.4888C39.4013 30.1478 40.0303 29.8734 40.7051 29.6875C40.9138 29.628 41.0863 29.4554 41.1458 29.2468L41.8069 26.9231ZM42.9487 33.3333C40.4781 33.3333 38.4615 35.3499 38.4615 37.8205C38.4615 40.2911 40.4781 42.3077 42.9487 42.3077C45.4193 42.3077 47.4359 40.2911 47.4359 37.8205C47.4359 35.3499 45.4193 33.3333 42.9487 33.3333ZM42.9487 34.6154C44.7265 34.6154 46.1538 36.0428 46.1538 37.8205C46.1538 39.5982 44.7265 41.0256 42.9487 41.0256C41.171 41.0256 39.7436 39.5982 39.7436 37.8205C39.7436 36.0428 41.171 34.6154 42.9487 34.6154Z" fill="url(#paint0_linear_115_40)"/>
<defs>
<linearGradient id="paint0_linear_115_40" x1="27.5641" y1="0" x2="27.5641" y2="50" gradientUnits="userSpaceOnUse">
<stop stop-color="#EB4410"/>
<stop offset="1" stop-color="#F29D1E"/>
</linearGradient>
</defs>
</svg>
