<svg width="35" height="50" viewBox="0 0 35 50" fill="none" xmlns="http://www.w3.org/2000/svg">
<path d="M17.4237 0C7.79926 5.81395e-06 4.06977e-06 7.81742 0 17.4419C-5.81395e-07 23.4007 2.99546 28.6646 7.55814 31.8132V49.4186C7.55924 49.7198 7.83436 50 8.13953 50C8.24727 50 8.35433 49.9681 8.4484 49.9092L17.4419 44.2951L26.4353 49.9092C26.5212 49.963 26.6461 50 26.7442 50C27.0515 50 27.3244 49.7295 27.3256 49.4186V31.7951C31.8836 28.645 34.8837 23.3926 34.8837 17.4419C34.8837 7.81742 27.0481 5.81395e-06 17.4237 0ZM17.4237 1.18096C26.4197 1.18096 33.7028 8.44585 33.7028 17.4419C33.7028 26.4379 26.4197 33.7209 17.4237 33.7209C8.42768 33.7209 1.16278 26.4379 1.16279 17.4419C1.16278 8.44586 8.42767 1.18096 17.4237 1.18096ZM17.4419 5.81395C11.0279 5.81395 5.81396 11.0278 5.81395 17.4419C5.81394 23.8559 11.0278 29.0698 17.4419 29.0698C23.8558 29.0698 29.0698 23.8559 29.0698 17.4419C29.0698 11.0278 23.8559 5.81396 17.4419 5.81395ZM17.4419 6.97674C23.2275 6.97674 27.8888 11.6563 27.8888 17.4419C27.8888 23.2274 23.2275 27.9069 17.4419 27.907C11.6563 27.9069 6.97673 23.2275 6.97674 17.4419C6.97674 11.6563 11.6563 6.97674 17.4419 6.97674ZM8.72093 32.54C10.1539 33.3705 11.7187 33.9971 13.3721 34.3932V45.3488C13.3697 45.3791 13.3697 45.4095 13.3721 45.4397L8.72093 48.3467V32.54ZM26.1628 32.54V48.3467L21.5116 45.4578C21.5117 45.4518 21.5117 45.4457 21.5116 45.4397C21.514 45.4095 21.514 45.3791 21.5116 45.3488V34.3932C23.1647 33.9956 24.7296 33.3715 26.1628 32.54ZM20.3488 34.6294V44.7129L17.7507 43.0959C17.5668 42.9806 17.3169 42.9806 17.133 43.0959L14.5349 44.7129V34.6475C15.4752 34.8049 16.4388 34.8837 17.4237 34.8837C18.4159 34.8837 19.4015 34.7891 20.3488 34.6294Z" fill="url(#paint0_linear_115_30)"/>
<defs>
<linearGradient id="paint0_linear_115_30" x1="17.4419" y1="0" x2="17.4419" y2="50" gradientUnits="userSpaceOnUse">
<stop stop-color="#2E10EB"/>
<stop offset="1" stop-color="#BB1EF2"/>
</linearGradient>
</defs>
</svg>
