<svg width="24" height="24" viewBox="0 0 24 24" fill="none" xmlns="http://www.w3.org/2000/svg">
<path d="M9.02 2.83999L3.63 7.03999C2.73 7.73999 2 9.22999 2 10.36V17.77C2 20.09 3.89 21.99 6.21 21.99H17.79C20.11 21.99 22 20.09 22 17.78V10.5C22 9.28999 21.19 7.73999 20.2 7.04999L14.02 2.71999C12.62 1.73999 10.37 1.78999 9.02 2.83999Z" stroke="#F1F1F1" stroke-width="1.5" stroke-linecap="round" stroke-linejoin="round"/>
<path d="M10.5 18H13.5C15.15 18 16.5 16.65 16.5 15V12C16.5 10.35 15.15 9 13.5 9H10.5C8.85 9 7.5 10.35 7.5 12V15C7.5 16.65 8.85 18 10.5 18Z" stroke="#F1F1F1" stroke-width="1.5" stroke-linecap="round" stroke-linejoin="round"/>
<path d="M12 9V18" stroke="#F1F1F1" stroke-width="1.5" stroke-linecap="round" stroke-linejoin="round"/>
<path d="M7.5 13.5H16.5" stroke="#F1F1F1" stroke-width="1.5" stroke-linecap="round" stroke-linejoin="round"/>
</svg>
