<svg width="64" height="64" viewBox="0 0 64 64" fill="none" xmlns="http://www.w3.org/2000/svg">
<path d="M43 18.5V44.645C43.0188 45.3829 42.744 46.098 42.2358 46.6333C41.7277 47.1686 41.0278 47.4804 40.29 47.5H23.71C22.9722 47.4804 22.2723 47.1686 21.7642 46.6333C21.256 46.098 20.9812 45.3829 21 44.645V18.5C20.9939 14.0238 22.3775 9.65612 24.96 6C26.2097 4.2071 27.7431 2.62977 29.5 1.33C30.2198 0.785717 31.0976 0.491211 32 0.491211C32.9024 0.491211 33.7802 0.785717 34.5 1.33C37.1556 3.3328 39.3068 5.92795 40.7825 8.90881C42.2582 11.8897 43.0175 15.1739 43 18.5Z" fill="#FBCC88"/>
<path d="M43 41.645V44.645C43.0188 45.3828 42.744 46.098 42.2358 46.6333C41.7277 47.1686 41.0278 47.4804 40.29 47.5H23.71C22.9722 47.4804 22.2723 47.1686 21.7642 46.6333C21.256 46.098 20.9812 45.3828 21 44.645V41.645C20.9812 42.3828 21.256 43.098 21.7642 43.6333C22.2723 44.1686 22.9722 44.4804 23.71 44.5H40.29C41.0278 44.4804 41.7277 44.1686 42.2358 43.6333C42.744 43.098 43.0188 42.3828 43 41.645Z" fill="#C7CDD8"/>
<path d="M39.535 6.715C37.1607 7.76101 34.5945 8.3012 32 8.3012C29.4055 8.3012 26.8393 7.76101 24.465 6.715C25.8028 4.62946 27.5089 2.80475 29.5 1.33C30.2198 0.785717 31.0976 0.491211 32 0.491211C32.9024 0.491211 33.7802 0.785717 34.5 1.33C36.4927 2.8029 38.1991 4.62795 39.535 6.715Z" fill="#9D7AD7"/>
<path d="M39.535 6.71501C37.1607 7.76101 34.5945 8.30121 32 8.30121C29.4055 8.30121 26.8393 7.76101 24.465 6.71501C24.8984 6.04733 25.3692 5.40464 25.875 4.79001C29.8472 6.13758 34.1528 6.13758 38.125 4.79001C38.6305 5.40489 39.1013 6.04756 39.535 6.71501Z" fill="#6A5BC9"/>
<path d="M32 36.5C35.5899 36.5 38.5 33.5899 38.5 30C38.5 26.4101 35.5899 23.5 32 23.5C28.4101 23.5 25.5 26.4101 25.5 30C25.5 33.5899 28.4101 36.5 32 36.5Z" fill="#B29DDF"/>
<path d="M38.425 31C38.1897 29.4646 37.4124 28.0643 36.2338 27.0526C35.0552 26.0408 33.5533 25.4846 32 25.4846C30.4467 25.4846 28.9448 26.0408 27.7662 27.0526C26.5876 28.0643 25.8103 29.4646 25.575 31C25.4331 30.074 25.493 29.1282 25.7507 28.2275C26.0084 27.3268 26.4578 26.4925 27.068 25.7816C27.6782 25.0708 28.4349 24.5002 29.2861 24.1091C30.1374 23.718 31.0632 23.5154 32 23.5154C32.9368 23.5154 33.8626 23.718 34.7139 24.1091C35.5651 24.5002 36.3218 25.0708 36.932 25.7816C37.5422 26.4925 37.9916 27.3268 38.2493 28.2275C38.507 29.1282 38.5669 30.074 38.425 31Z" fill="#7E77CB"/>
<path d="M24 47.5H40L39 51.5H25L24 47.5Z" fill="#949AAF"/>
<path d="M43 27L57 38.315V44H43V27Z" fill="#9D7AD7"/>
<path d="M21 27L7 38.315V44H21V27Z" fill="#9D7AD7"/>
<path d="M57 41H43V44H57V41Z" fill="#6A5BC9"/>
<path d="M21 41H7V44H21V41Z" fill="#6A5BC9"/>
<path d="M35.345 51.5C35.7066 51.8439 35.9953 52.2571 36.1937 52.7149C36.3922 53.1728 36.4963 53.666 36.5 54.165C36.5 58.165 32 63.5 32 63.5C32 63.5 27.5 58.165 27.5 54.165C27.5037 53.666 27.6078 53.1728 27.8063 52.7149C28.0047 52.2571 28.2934 51.8439 28.655 51.5" fill="#E2607F"/>
<path d="M33.95 51.5C34.1613 51.7005 34.33 51.9415 34.446 52.2087C34.562 52.4759 34.6229 52.7637 34.625 53.055C34.625 55.39 32 58.5 32 58.5C32 58.5 29.375 55.39 29.375 53.055C29.3771 52.7637 29.438 52.4759 29.554 52.2087C29.67 51.9415 29.8387 51.7005 30.05 51.5" fill="#FBCC88"/>
</svg>
