<svg width="24" height="24" viewBox="0 0 24 24" fill="none" xmlns="http://www.w3.org/2000/svg">
<path d="M15.59 12.26C18.4232 12.26 20.72 9.96323 20.72 7.13C20.72 4.29678 18.4232 2 15.59 2C12.7567 2 10.46 4.29678 10.46 7.13C10.46 9.96323 12.7567 12.26 15.59 12.26Z" stroke="#F1F1F1" stroke-width="1.5" stroke-miterlimit="10"/>
<path d="M6.36002 19.44C8.06105 19.44 9.44003 18.061 9.44003 16.36C9.44003 14.659 8.06105 13.28 6.36002 13.28C4.65898 13.28 3.28003 14.659 3.28003 16.36C3.28003 18.061 4.65898 19.44 6.36002 19.44Z" stroke="#F1F1F1" stroke-width="1.5" stroke-miterlimit="10"/>
<path d="M16.6201 22C18.0339 22 19.1801 20.8539 19.1801 19.44C19.1801 18.0262 18.0339 16.88 16.6201 16.88C15.2062 16.88 14.0601 18.0262 14.0601 19.44C14.0601 20.8539 15.2062 22 16.6201 22Z" stroke="#F1F1F1" stroke-width="1.5" stroke-miterlimit="10"/>
</svg>
